<svg id="Logo_-_Video_Detail" data-name="Logo - Video Detail" xmlns="http://www.w3.org/2000/svg" width="78.126" height="60" viewBox="0 0 78.126 60">
  <path id="Path_1241" data-name="Path 1241" d="M73.681,8.754l-.224-.511-.47-.3C72.484,7.616,60.4,0,39.1,0S5.718,7.616,5.213,7.941l-.449.289-.226.485A55.7,55.7,0,0,0,0,30,55.7,55.7,0,0,0,4.538,51.286l.226.485.449.289C5.718,52.383,17.8,60,39.1,60s33.382-7.617,33.886-7.94l.47-.3.224-.511A59.347,59.347,0,0,0,78.126,30,59.358,59.358,0,0,0,73.681,8.754ZM75.373,30a56.565,56.565,0,0,1-4.186,20s-11.6,7.46-32.086,7.46-32.089-7.46-32.089-7.46A52.949,52.949,0,0,1,2.753,30,52.947,52.947,0,0,1,7.012,9.993S18.611,2.533,39.1,2.533,71.187,9.993,71.187,9.993a56.567,56.567,0,0,1,4.186,20V30Z" fill="#fff"/>
  <path id="Path_1242" data-name="Path 1242" d="M138.189,95.084h-4.352a.186.186,0,0,0-.187.186v1.068a.186.186,0,0,0,.187.186h1.4v5.235a.192.192,0,0,0,.187.186H136.6a.193.193,0,0,0,.186-.186V96.525h1.4a.186.186,0,0,0,.187-.186V95.27A.186.186,0,0,0,138.189,95.084Z" transform="translate(-111.168 -79.089)" fill="#fff"/>
  <path id="Path_1243" data-name="Path 1243" d="M234.128,128.124a1.949,1.949,0,0,0,1.137-1.548,1.97,1.97,0,0,0-2.108-1.824h-2.283a.186.186,0,0,0-.187.186v6.489a.186.186,0,0,0,.187.187h2.431a2,2,0,0,0,2.137-1.892A1.853,1.853,0,0,0,234.128,128.124Zm-1.911-1.961h.765a.666.666,0,0,1,.686.667.7.7,0,0,1-.686.706h-.765Zm.891,4.049h-.891v-1.4h.793a.783.783,0,0,1,.8.686A.71.71,0,0,1,233.108,130.212Z" transform="translate(-191.882 -103.766)" fill="#fff"/>
  <path id="Path_1244" data-name="Path 1244" d="M132.889,68.345a9.51,9.51,0,0,0-1.914.2,9.37,9.37,0,0,0-4.56,2.375c-.032-.275-.072-.549-.129-.824a9.438,9.438,0,0,0-15.813-4.881c-.03-.241-.061-.482-.11-.724a9.435,9.435,0,0,0-11.155-7.345A9.448,9.448,0,0,0,91.672,66.2c0,.1.032,23.717.025,24.309a6.434,6.434,0,0,0,6.418,6.533,6.524,6.524,0,0,0,1.3-.133,6.411,6.411,0,0,0,4.446-3.431,6.413,6.413,0,0,0,7.046,3.431,6.379,6.379,0,0,0,4.069-2.76,5.928,5.928,0,0,0,.377-.663,6.432,6.432,0,0,0,9.183,2.562c.636-.4,13.957-10.662,14.256-10.9a9.442,9.442,0,0,0-5.905-16.8Zm-30.274,5.337a7.433,7.433,0,0,1-8.791-5.788A7.441,7.441,0,0,1,99.612,59.1a7.442,7.442,0,1,1,3,14.579Zm21.533.507c-.089.217-.164.438-.237.659a7.442,7.442,0,1,1-8.376-10.14,7.432,7.432,0,0,1,8.791,5.788A7.374,7.374,0,0,1,124.148,74.189ZM139.1,81.884a7.4,7.4,0,0,1-4.716,3.2,7.43,7.43,0,0,1-8.79-5.788,7.383,7.383,0,0,1,.181-3.7c.086-.21.159-.425.229-.639a7.482,7.482,0,0,1,.663-1.252,7.4,7.4,0,0,1,4.714-3.2,7.434,7.434,0,0,1,8.792,5.789A7.4,7.4,0,0,1,139.1,81.884Z" transform="translate(-76.251 -47.367)" fill="#fff"/>
  <path id="Path_1245" data-name="Path 1245" d="M325.336,160.01h-2.393a.185.185,0,0,0-.177.186v6.489a.185.185,0,0,0,.177.186h2.393a3.431,3.431,0,1,0,0-6.861Zm-.1,5.411h-.94v-3.97h.94a1.986,1.986,0,0,1,0,3.97Z" transform="translate(-268.472 -133.093)" fill="#fff"/>
</svg>
