<svg xmlns="http://www.w3.org/2000/svg" width="75.892" height="60" viewBox="0 0 75.892 60">
  <g id="Logo_-_Light" data-name="Logo - Light">
    <g id="Group_1237" data-name="Group 1237" transform="translate(-397.85 -74.295)">
      <path id="Path_1327" data-name="Path 1327" d="M576.821,170.946H576v3.481h.824a1.741,1.741,0,0,0,0-3.481Z" transform="translate(-125.505 -68.091)" fill="#fff"/>
      <g id="Group_1237-2" data-name="Group 1237" transform="translate(436.911 97.629)">
        <path id="Path_1328" data-name="Path 1328" d="M530.734,161.114h-.7v1.229h.781a.623.623,0,0,0,.618-.627A.686.686,0,0,0,530.734,161.114Z" transform="translate(-530.038 -158.794)" fill="#fff"/>
        <path id="Path_1329" data-name="Path 1329" d="M531.31,153.846a.584.584,0,0,0-.6-.584h-.67v1.2h.67A.613.613,0,0,0,531.31,153.846Z" transform="translate(-530.038 -153.262)" fill="#fff"/>
      </g>
      <g id="Group_1238" data-name="Group 1238" transform="translate(397.85 74.295)">
        <path id="Path_1330" data-name="Path 1330" d="M469.535,84.186l-.644-1.473-1.351-.868c-.479-.309-11.962-7.55-31.709-7.55s-31.234,7.243-31.713,7.55l-1.291.831-.655,1.4A52.138,52.138,0,0,0,397.85,104.3a52.2,52.2,0,0,0,4.326,20.227l.65,1.391,1.293.833a42.679,42.679,0,0,0,8.833,3.979,75.1,75.1,0,0,0,45.754,0,42.582,42.582,0,0,0,8.833-3.98l1.352-.869.646-1.477a55.276,55.276,0,0,0,4.2-20.1A55.259,55.259,0,0,0,469.535,84.186Zm-3.388,38.736-.2.448-.412.265c-.442.284-11.037,6.961-29.709,6.961s-29.269-6.678-29.711-6.961l-.394-.254-.2-.425a48.842,48.842,0,0,1-3.978-18.661,48.839,48.839,0,0,1,3.978-18.661l.2-.425.394-.253c.442-.285,11.038-6.962,29.711-6.962s29.267,6.678,29.709,6.962l.412.264.2.448a52.05,52.05,0,0,1,3.9,18.63A52.036,52.036,0,0,1,466.147,122.922Z" transform="translate(-397.85 -74.295)" fill="#fff"/>
        <path id="Path_1331" data-name="Path 1331" d="M478.53,100.864s-10.169-6.541-28.131-6.541-28.133,6.541-28.133,6.541a46.416,46.416,0,0,0-3.735,17.541,46.418,46.418,0,0,0,3.735,17.541s10.169,6.541,28.133,6.541,28.131-6.541,28.131-6.541a49.6,49.6,0,0,0,3.67-17.539v0A49.6,49.6,0,0,0,478.53,100.864Zm-5.848,22.465a8.245,8.245,0,0,1-1.73,1.9c-.262.209-11.941,9.205-12.5,9.558a5.635,5.635,0,0,1-8.051-2.247,5.258,5.258,0,0,1-.33.581,5.593,5.593,0,0,1-3.568,2.42,5.621,5.621,0,0,1-6.177-3.008,5.622,5.622,0,0,1-3.9,3.008,5.625,5.625,0,0,1-6.653-4.38,5.618,5.618,0,0,1-.117-1.231c.007-.52-.023-21.224-.022-21.313a8.283,8.283,0,0,1,6.608-7.941,8.27,8.27,0,0,1,9.78,6.439c.044.212.071.424.1.635a8.229,8.229,0,0,1,4.083-2.16,8.274,8.274,0,0,1,9.78,6.439c.049.24.084.481.113.722a8.213,8.213,0,0,1,4-2.083,8.271,8.271,0,0,1,9.779,6.439A8.219,8.219,0,0,1,472.681,123.33Z" transform="translate(-412.42 -88.405)" fill="#fff"/>
        <path id="Path_1332" data-name="Path 1332" d="M562.829,154.988a6.6,6.6,0,0,0-1.325.136,6.484,6.484,0,0,0-4.133,2.8,6.587,6.587,0,0,0-.581,1.1c-.061.189-.126.377-.2.561a6.468,6.468,0,0,0-.158,3.246,6.525,6.525,0,1,0,6.4-7.843Zm.2,9.468h-2.1a.162.162,0,0,1-.155-.163V158.6a.162.162,0,0,1,.155-.163h2.1a3.008,3.008,0,1,1,0,6.015Z" transform="translate(-509.475 -131.143)" fill="#fff"/>
        <path id="Path_1333" data-name="Path 1333" d="M515.821,137.8a6.606,6.606,0,0,0-1.325.136,6.526,6.526,0,0,0,1.308,12.918,6.567,6.567,0,0,0,1.324-.136,6.517,6.517,0,0,0,4.711-3.892c.064-.194.13-.388.208-.578a6.467,6.467,0,0,0,.155-3.237A6.545,6.545,0,0,0,515.821,137.8Zm.551,9.347h-2.131a.163.163,0,0,1-.164-.164v-5.689a.163.163,0,0,1,.164-.163h2a1.727,1.727,0,0,1,1.848,1.6,1.709,1.709,0,0,1-1,1.358,1.624,1.624,0,0,1,1.152,1.4A1.753,1.753,0,0,1,516.372,147.147Z" transform="translate(-476.356 -119.035)" fill="#fff"/>
        <path id="Path_1334" data-name="Path 1334" d="M468.578,121.171a6.55,6.55,0,0,0-1.324.136,6.526,6.526,0,0,0,1.308,12.917,6.526,6.526,0,0,0,.016-13.053Zm2.047,4.969a.163.163,0,0,1-.164.163h-1.229v4.589a.169.169,0,0,1-.163.163h-1.031a.169.169,0,0,1-.164-.163V126.3h-1.228a.163.163,0,0,1-.163-.163V125.2a.163.163,0,0,1,.163-.163h3.815a.163.163,0,0,1,.164.163Z" transform="translate(-443.074 -107.319)" fill="#fff"/>
      </g>
    </g>
  </g>
</svg>
